<svg id="Camada_1" data-name="Camada 1"
  xmlns="http://www.w3.org/2000/svg"
  xmlns:xlink="http://www.w3.org/1999/xlink"
  viewBox="0 0 500 240">
<defs>
  <style>
    .cls-1{fill:url(#Gradiente_sem_nome_83);}
    .cls-2{fill:#333333;}
  </style>
  <linearGradient
    id="Gradiente_sem_nome_83"
    x1="168.91" y1="213.92" x2="65.74" y2="35.23"
    gradientUnits="userSpaceOnUse">
    <stop offset="0" stop-color="#ff4b2b"/>
    <stop offset="1" stop-color="#ff416c"/>
  </linearGradient>
</defs>
<title>logo-fa</title>
<path class="cls-1" d="M182.91,162.91a72.89,72.89,0,0,1-6.3,7.76l-5.91-7.76H166l5.41,5.38.29.37-7.66-5.75h-4.37l14.1,10.62a72.62,72.62,0,0,1-43.61,19.79l4.23-30.41H123v52.63l-9.92-71.6-.44-3-.37-2.68a20.76,20.76,0,0,0,6.73,2.82v-7.72a13.32,13.32,0,0,1,0-25V83.49h5.34V25.75l8,57.74H135l-4.89-35A72.5,72.5,0,0,1,173.6,68L153.17,83.49H161L171.44,73h0l-7.94,10.53h3.32l9.56-12.69A72.5,72.5,0,0,1,186,83.49h3a75.59,75.59,0,0,0-11-14.83l6.22-8.21.16-.17A86.12,86.12,0,0,1,200.8,83.49h3.07a88.37,88.37,0,0,0-75.94-51L123.65,1.79l-4.22,30.65a88.51,88.51,0,0,0-84.15,84.18L4.55,120.9l30.65,4.21a88.55,88.55,0,0,0,84.27,84.18L123.73,240,128,209.28a88.43,88.43,0,0,0,73.51-46.37ZM156.46,41.55h0l-3.84,9.76a75.07,75.07,0,0,0-22.84-5.52L128.3,35.17A84.79,84.79,0,0,1,156.46,41.55ZM110.64,96.13,73.52,68.23a72.44,72.44,0,0,1,43.69-19.75Zm-1.73,10.11L75.67,73.15l34.48,25.92-1,6.94Zm.06,29.35-32.9,33,25.82-34.3,6.78,1C108.77,135.38,108.87,135.5,109,135.59ZM90.49,41.7l4.07,9.66A75,75,0,0,0,71.38,66.61L63,60.29A86.26,86.26,0,0,1,90.49,41.7ZM70.77,71,98.7,107.77l-47.43,6.6A72.62,72.62,0,0,1,70.77,71ZM44.38,88l9.71,4a75,75,0,0,0-5.52,22.75l-10.64,1.48A85.28,85.28,0,0,1,44.38,88ZM28.15,120.28l7.1-1v.16l15.89-2.22v-.15l55.24-7.71a20.67,20.67,0,0,0-3.47,10.8ZM63,181.49a86.6,86.6,0,0,1-18.59-27.66l9.71-4A75.58,75.58,0,0,0,69.35,173.1ZM51.24,127.32l47.67,6.55L71,171A72.76,72.76,0,0,1,51.24,127.32Zm59.41,18.46,6.6,47.55a72.45,72.45,0,0,1-43.47-19.52Zm-19.83,54.4,3.83-9.74a74.78,74.78,0,0,0,22.9,5.56L119,206.63A85.07,85.07,0,0,1,90.82,200.18Zm65.56,0-4.15-9.61A75.26,75.26,0,0,0,176,175.14l7.67,5.75.66.66A86.81,86.81,0,0,1,156.38,200.23Z"/><path class="cls-2" d="M127.14,88.52H141v68.79H127.14Z"/><path class="cls-2" d="M215.09,88.52v68.79H201l-35.12-47.88v47.88H152V88.52h14.12l35.22,47.78V88.52Z"/><path class="cls-2" d="M300.93,88.52v68.79H287.17V108L263.42,144.1,239.94,108v49.35H226.09V88.52H241L263.51,122l22.65-33.47Z"/><path class="cls-2" d="M357.42,144.28H326.33l-4.86,13h-15l27.61-68.79h15.5l27.6,68.79h-15Zm-4.22-11.37-11.28-30.36-11.37,30.36Z"/><path class="cls-2" d="M431.71,109c0,11.37-8.9,20-20.36,20H396.76v28.34H382.92V88.52h28.43A20.28,20.28,0,0,1,431.71,109Zm-12.57.09c0-5-4-8.53-9.08-8.53h-13.3v17.15h13.3C415.11,117.68,419.14,114.29,419.14,109.06Z"/><path class="cls-2" d="M471.42,124.75v32.56H457.66V125l-24.21-36.5h15.41l15.59,24.67,15.77-24.67h15.23Z"/></svg>
