<svg xmlns="http://www.w3.org/2000/svg" viewBox="0 0 168 160.33">
<defs><style>.cls-1{fill:#dadada;stroke:#dadada;stroke-miterlimit:10;}</style></defs><title>compass-arrow</title><g id="Camada_8" data-name="Camada 8"><path class="cls-1" d="M82.7,154.12a3,3,0,0,1-2.15-.89L62.61,135.28a3.05,3.05,0,0,1,0-4.3l17.94-18a3.05,3.05,0,0,1,4.3,0l17.94,18,.08.08a3.06,3.06,0,0,1-.08,4.22l-18,17.95A3,3,0,0,1,82.7,154.12Zm0-39.88a1,1,0,0,0-.66.27l-17.94,18a.94.94,0,0,0,0,1.32l17.94,18a.93.93,0,0,0,1.31,0l18-18a.93.93,0,0,0,0-1.32l-.05-.06-17.88-17.9A.93.93,0,0,0,82.7,114.24Zm-4,25.93h-4a1.05,1.05,0,0,1-1.06-1v-8a3.07,3.07,0,0,1,3-3h8.92v-3.93a1.06,1.06,0,0,1,.65-1,1,1,0,0,1,1.15.23l7,7a1.06,1.06,0,0,1,0,1.49l-7,7a1.07,1.07,0,0,1-1.15.23,1,1,0,0,1-.65-1v-3.95H79.76v4.94A1.06,1.06,0,0,1,78.7,140.17Zm-2.93-2.11h1.88v-4.93a1.06,1.06,0,0,1,1-1.06h8a1.07,1.07,0,0,1,1.06,1.06v2.45l4.42-4.44-4.43-4.43v2.44a1,1,0,0,1-1,1h-10a1,1,0,0,0-.94,1Z"/><path class="cls-1" d="M103.3,33.18H62.76A3.17,3.17,0,0,1,60,31.46a4.33,4.33,0,0,1,0-4.31l9-14.56a3.86,3.86,0,0,1,.61-.75,2.86,2.86,0,0,1,.71-.5,3.06,3.06,0,0,1,4.1,1.29c1.22,2,2.94,4.78,4.61,7.48l2.35,3.81,0,.07a1.37,1.37,0,0,0,.15.21.93.93,0,0,0,1.32,0,2.08,2.08,0,0,0,.28-2.52L77.85,13l7-11.3A3.5,3.5,0,0,1,85.5.88a3.22,3.22,0,0,1,.66-.46A3.06,3.06,0,0,1,90.25,1.7L106,27.19a4.26,4.26,0,0,1,.07,4.26A3.19,3.19,0,0,1,103.3,33.18ZM71.8,13.11a.94.94,0,0,0-.43.1,1.25,1.25,0,0,0-.22.16,1.61,1.61,0,0,0-.25.32L61.85,28.25a2.23,2.23,0,0,0,0,2.17,1.15,1.15,0,0,0,.93.65H103.3a1.13,1.13,0,0,0,.93-.65,2.16,2.16,0,0,0,0-2.12L88.39,2.7a.94.94,0,0,0-1.27-.4l-.21.14a1.81,1.81,0,0,0-.29.34L80.33,13l4.73,7.66a4.2,4.2,0,0,1-.6,5.12,3,3,0,0,1-4.8-.74l-2.33-3.78c-1.68-2.71-3.42-5.52-4.63-7.52l0-.07A1,1,0,0,0,71.8,13.11Z"/><path class="cls-1" d="M146.46,92.82a.84.84,0,0,1-.27,0l-12.57-3.33-11,3.26-.14,0-.34.05h-.16a2,2,0,0,1-2.12-1.87V66.3a1.93,1.93,0,0,1,1.57-1.81l12-3.07.09,0h0a1.19,1.19,0,0,1,.42,0l12.51,3.34,11.11-3.28.16,0,.34,0h0a2,2,0,0,1,2.2,1.75.57.57,0,0,1,0,.13V87.9a.49.49,0,0,1,0,.12,1.94,1.94,0,0,1-1.6,1.7l-11.87,3A1.13,1.13,0,0,1,146.46,92.82ZM121.93,66.53V90.68l.13,0,10.55-3.11V63.8Zm25.58.12V90.4l10.68-2.73V63.51h-.12ZM134.72,87.53l10.68,2.85V66.67l-10.68-2.85Z"/><path class="cls-1" d="M41.19,91.51h-30a4.57,4.57,0,0,1-4.8-4.3V67.71a4.57,4.57,0,0,1,4.8-4.3H16.7l3.13-3a1,1,0,0,1,.72-.28H31.81a1,1,0,0,1,.72.28l3.13,3h5.53a4.57,4.57,0,0,1,4.8,4.3v19.5A4.57,4.57,0,0,1,41.19,91.51Zm-30-26a2.49,2.49,0,0,0-2.69,2.19v19.5a2.51,2.51,0,0,0,2.69,2.19h30a2.48,2.48,0,0,0,2.69-2.19V67.71a2.52,2.52,0,0,0-2.69-2.19H35.24a1,1,0,0,1-.72-.29l-3.13-3H21l-3.13,3a1,1,0,0,1-.72.29Zm15,21.11c-5.54,0-9.71-3.94-9.71-9.17s4.17-9.17,9.71-9.17,9.66,3.94,9.66,9.17S31.69,86.63,26.18,86.63Zm0-16.23c-4.41,0-7.61,3-7.61,7.06s3.2,7.06,7.61,7.06,7.55-3,7.55-7.06S30.56,70.4,26.18,70.4Z"/><rect class="cls-1" x="-7.66" y="76.38" width="181.32" height="2.11" transform="translate(-30.44 81.33) rotate(-44.98)"/><polygon class="cls-1" points="18.79 140.22 8.9 137.57 7.2 139.26 17.09 141.92 15.39 143.61 5.5 140.96 3.81 142.66 13.7 145.31 12 147.01 2.11 144.36 0.41 146.06 10.3 148.71 8.57 150.44 10.05 151.92 11.78 150.19 14.43 160.08 16.13 158.39 13.48 148.49 15.18 146.79 17.82 156.69 19.52 154.99 16.87 145.09 18.57 143.4 21.22 153.29 22.91 151.59 20.26 141.7 18.79 140.22"/><path class="cls-1" d="M144.41,16l-8.64-2.11.07-.3,12.23-5.29,11.18-7.14q-3.58,5.58-7.15,11.18l-5.28,12.24-.27.1Z"/><rect class="cls-1" x="82.61" y="-13.23" width="2.11" height="181.32" transform="translate(-30.25 81.8) rotate(-44.98)"/><polygon class="cls-1" points="146.4 141.7 143.75 151.59 145.45 153.29 148.1 143.39 149.8 145.09 147.15 154.99 148.84 156.69 151.49 146.79 153.19 148.49 150.54 158.38 152.24 160.08 154.88 150.18 156.62 151.92 158.1 150.44 156.36 148.71 166.25 146.05 164.56 144.36 154.67 147.01 152.97 145.31 162.86 142.66 161.16 140.96 151.27 143.61 149.58 141.91 159.47 139.26 157.77 137.56 147.88 140.22 146.4 141.7"/><path class="cls-1" d="M22.25,16l-2.1,8.65-.31-.07L14.56,12.32,7.42,1.14,18.59,8.28l12.24,5.29.09.27Z"/></g></svg>
